<?xml version="1.0" standalone="no"?><!DOCTYPE svg PUBLIC "-//W3C//DTD SVG 1.1//EN" "http://www.w3.org/Graphics/SVG/1.1/DTD/svg11.dtd"><svg t="1781185845265" class="icon" viewBox="0 0 1024 1024" version="1.1" xmlns="http://www.w3.org/2000/svg" p-id="10709" xmlns:xlink="http://www.w3.org/1999/xlink" width="200" height="200"><path d="M546.919895 477.409597V240.901181a236.554955 236.554955 0 0 1 45.886915-143.012665A226.17688 226.17688 0 0 1 721.951016 9.186225a233.157648 233.157648 0 0 1 227.573033 57.056143c36.299993 33.042301 60.639604 77.253831 69.15614 125.653822a238.090724 238.090724 0 0 1-197.416116 281.836869 254.937643 254.937643 0 0 1-41.18653 3.397307c-76.043832 0.232692-152.041125 0-228.084956 0l-5.11923 0.279231z m-69.900756 0H242.139569A240.045339 240.045339 0 0 1 6.375768 290.883479a237.858031 237.858031 0 0 1 76.323062-232.226879 236.69457 236.69457 0 0 1 318.136862 7.446153 238.974954 238.974954 0 0 1 72.925756 138.079589c2.09423 12.239613 3.164615 24.572303 3.257691 36.998069 0.186154 77.393447 0 154.740355 0 232.180341v4.048845z m0 69.807679v235.298416a234.134955 234.134955 0 0 1-61.616911 162.046892 228.503802 228.503802 0 0 1-135.799205 75.485371A231.947648 231.947648 0 0 1 67.015372 949.867968a224.036111 224.036111 0 0 1-61.709988-117.230362 230.36534 230.36534 0 0 1 52.821143-201.883808 236.08957 236.08957 0 0 1 139.801512-79.301523c15.264612-2.792307 30.715379-4.188461 46.259222-4.188461h227.712649l5.119229-0.139615z m69.900756 2.69923h236.880724a238.276877 238.276877 0 0 1 132.820744 38.347685 224.594572 224.594572 0 0 1 98.103058 133.84459 239.207646 239.207646 0 0 1-169.213814 293.657636 216.403805 216.403805 0 0 1-79.161908 6.841152 235.996493 235.996493 0 0 1-196.531885-136.450743 218.823804 218.823804 0 0 1-21.779996-77.439985 253.913798 253.913798 0 0 1-1.116923-25.689226q-0.186154-114.484593 0-229.108802v-4.095384 0.093077z" p-id="10710" fill="#8a8a8a"></path></svg>